<svg xmlns="http://www.w3.org/2000/svg" xml:space="preserve" width="2000" height="1500" data-id="lg_2IpNvQD8keY9otV48g" data-version="1"><path fill="#fff" stroke="transparent" d="M0 0h2000v1500H0z"/><g data-padding="20"><g transform="translate(-2193.548 -1647.654)scale(3.08706)"><path fill="#000b6d" d="M929.425 753.904h29.23v12.53h-10.02l33.06 91.85h11.03v12.52h-35.41v-12.52h9.86l-7.52-21.88h-45.76l-7.51 21.88h10.02v12.52h-35.41v-12.52h10.86l33.06-91.68q-26.05.33-36.57 5.92-10.52 5.6-10.52 17.12 0 5.01 2.17 8.27 2.17 3.25 6.35 3.25 7.85 0 7.85-13.19h13.36q0 10.86-5.01 18.29t-16.2 7.43-16.54-7.01q-5.34-7.02-5.34-17.04 0-16.36 15.53-26.05t49.43-9.69m26.56 71.65-19.21-55.78-19.2 55.78Zm67.13-17.37v51.77h14.53v10.85h-41.58v-10.85h12.86v-103.54h-12.86v-10.86h27.05v49.94q17.2-9.86 31.23-9.86t19.45 8.52q5.43 8.52 5.43 23.55v43.08h13.7v7.02q-6.18 3.84-14.28 3.84t-10.86-2.76q-2.75-2.75-2.75-8.93v-42.25q0-9.69-2.51-14.62-2.5-4.92-11.52-4.92t-27.89 10.02m101.02 64.29q-11.52 0-18.03-6.59-6.51-6.6-6.51-17.71 0-11.1 8.68-18.62 8.68-7.51 25.72-7.51h18.2v-8.52q0-15.36-14.7-15.36-12.35 0-22.71 3v11.19h-11.69v-19.87q7.52-3.17 17.79-5.01t17.12-1.84q13.36 0 20.87 7.6 7.52 7.6 7.52 20.29v47.26h13.69v7.02q-6.18 3.84-14.2 3.84-8.01 0-10.85-2.67-2.84-2.68-2.84-9.02-12.52 12.52-28.06 12.52m1.51-12.52q14.36 0 26.55-16.2v-10.69h-18.37q-10.19 0-15.11 4.01-4.93 4.01-4.93 10.1 0 6.1 3.01 9.44 3 3.34 8.85 3.34"/><rect width="321" height="188.71" x="460.095" y="357.944" fill="none" rx="0" ry="0" transform="translate(422.58 346.57)"/><path fill="#ffa62e" d="m883.47 714.42-21.302 8.591a2.874 3.066-21.239 1 0 2.28 5.677l21.301-8.592a2.874 3.066-21.239 0 0-2.28-5.677m3.555 8.847-21.301 8.592a2.874 3.066-21.239 1 0 2.28 5.677l2.677-1.08a5.736 6.118-21.239 0 0 7.47 3.244l5.331-2.15a5.736 6.118-21.239 0 0 3.145-7.526l2.678-1.08a2.874 3.066-21.239 0 0-2.28-5.677m-83.181-51.67 12.947 2.215a2.156 2.3-21.239 1 0 .515-4.502l-12.942-2.203a2.156 2.3-21.239 0 0-.52 4.49m105.5 13.419-12.947-2.216a2.156 2.3-21.239 0 0-.52 4.49l12.947 2.215a2.156 2.3-21.239 1 0 .508-4.485m-87.346 7.248c-.469-1.168-1.744-1.76-2.85-1.314l-11.984 4.833a2.156 2.3-21.239 0 0 1.709 4.255l11.983-4.834c1.107-.446 1.617-1.759 1.147-2.927m82.346-35.71-11.983 4.833a2.156 2.3-21.239 0 0 1.709 4.254l11.983-4.833a2.156 2.3-21.239 1 0-1.709-4.255m-73.342 52.611-7.812 10.574a2.156 2.3-21.239 0 0 3.483 2.89l7.812-10.575a2.156 2.3-21.239 0 0-3.478-2.876m51.193-61.753L890 636.853a2.156 2.3-21.239 0 0-3.478-2.876l-7.812 10.574a2.156 2.3-21.239 0 0 3.478 2.876m-21.137-8.087c1.187.201 2.275-.636 2.421-1.89l1.537-13.46a2.156 2.3-21.239 0 0-4.308-.74l-1.55 13.493c-.152 1.241.69 2.407 1.893 2.615m-19.284 2.01c1.106-.447 1.616-1.76 1.142-2.94l-5.13-12.777a2.156 2.3-21.239 0 0-3.999 1.613l5.136 12.789c.469 1.168 1.744 1.76 2.85 1.314m-18.354 12.244a2.156 2.3-21.239 1 0 2.6-3.513l-10.434-8.66a2.156 2.3-21.239 0 0-2.594 3.526Zm20.64-6.554c-14.28 5.76-21.456 23.116-15.38 38.521 5.824 14.504 17.865 16.184 28.716 32.497a3.67 3.914-21.239 0 0 4.3 1.512l19.777-7.977c1.464-.59 2.351-2.41 2.043-4.071-3.437-19.303 4.097-28.88-1.722-43.37-6.283-15.337-23.455-22.872-37.735-17.112m33.596 37.45c-.702 6.17-1.47 13.106-.11 22.106l-16.47 6.643c-5.233-7.452-10.588-11.903-15.348-15.871-5.348-4.469-9.214-7.691-11.718-13.927a24.4 24.4 0 0 1 .077-18.197 23.097 24.635-21.239 0 1 12.248-12.54c5.545-2.237 11.762-2.044 17.513.536a22.198 23.677-21.239 0 1 12.633 13.07c2.504 6.236 1.948 11.256 1.175 18.18"/><g transform="matrix(1.04 .2 -.2 1.04 330.5 255.7)"><linearGradient id="a" x1="0" x2="1" y1="0" y2="0" gradientUnits="objectBoundingBox"><stop offset="0%" stop-color="#0f3054"/><stop offset="49.8%" stop-color="#3b8dcb"/><stop offset="100%" stop-color="#0f3054"/></linearGradient><path fill="url(#a)" d="M748.318 372.085c-3.18-21.59-11.2-38.22-18.69-38.22-6.74 0-9.26 3.53-19.44 3.53-10.17 0-12.7-3.53-19.44-3.53-7.48 0-15.51 16.63-18.7 38.22Z" transform="translate(-54.09 -44.24)"/></g><g transform="matrix(1.04 .2 -.2 1.04 324.41 285.97)"><linearGradient id="b" x1="0" x2="1" y1="0" y2="0" gradientUnits="objectBoundingBox"><stop offset="0%" stop-color="#0f3054"/><stop offset="49.8%" stop-color="#3b8dcb"/><stop offset="100%" stop-color="#0f3054"/></linearGradient><path fill="url(#b)" d="M660.528 390.775a.57.57 0 0 0-.56.57c0 .31.25.56.56.56 23.06.49 67.35.6 92.04-6.44 12.01-3.43 7.17-14.72.36-13.2-35.4 7.93-26.67 15.6-92.4 18.51" transform="translate(-53.84 -73.38)"/></g><g transform="matrix(1.04 .2 -.2 1.04 308.05 286.57)"><linearGradient id="c" x1="0" x2="1" y1="0" y2="0" gradientUnits="objectBoundingBox"><stop offset="0%" stop-color="#0f3054"/><stop offset="49.8%" stop-color="#3b8dcb"/><stop offset="100%" stop-color="#0f3054"/></linearGradient><path fill="url(#c)" d="M719.088 381.975h-48.11q-.26 3.58-.32 7.23c26.8-1.6 39.06-4.17 48.43-7.23" transform="translate(-38.77 -76.85)"/></g><path fill="#ff851b" d="M894.725 891.774h-2.96v-1.87l2.62-.34h.34q1.09-2.55 1.46-4.49h1.43v4.49h5.06v2.21h-5.06v10.44q0 1.15.39 1.66t1.34.51 2.55-.64l1.12 1.93q-1.93 1.23-4.14 1.23t-3.18-1.16q-.97-1.15-.97-2.99Zm15.16 2.04v10.54h2.96v2.21h-8.47v-2.21h2.62v-21.08h-2.62v-2.21h5.51v10.16q3.5-2 6.36-2t3.96 1.73q1.11 1.74 1.11 4.8v8.77h2.78v1.43q-1.25.78-2.9.78t-2.21-.56-.56-1.82v-8.6q0-1.98-.51-2.98t-2.35-1-5.68 2.04m30.64 3.09v1.8h-12.01q.17 2.49 1.47 4.07 1.29 1.58 3.46 1.58 1.43 0 2.57-.31 1.14-.3 1.58-.56.44-.25 1.23-.76l1.25 1.9q-2.58 2.28-6.46 2.28-3.87 0-5.93-2.5t-2.06-6.34 2.06-6.34 5.61-2.5 5.39 2.14 1.84 5.54m-2.89-.61q-.21-2.07-1.24-3.3-1.04-1.22-2.96-1.22t-3.15 1.24q-1.22 1.24-1.63 3.28Zm17.74-4.51h-2.61v-2.21h4.86l.47 2.07q2.04-2.41 5.24-2.41t4.93 2.46q1.73 2.47 1.73 6.33t-2.04 6.37q-2.04 2.52-5.81 2.52-1.77 0-3.88-.68v5.44h2.62v2.21h-8.12v-2.21h2.61Zm11.73 6.41q0-2.81-1.12-4.61t-3.14-1.8q-2.03 0-3.3 1.6-1.28 1.59-1.28 3.84v6.08q1.84 1.06 3.64 1.06 2.35 0 3.78-1.68 1.42-1.69 1.42-4.49m20.17-1.29v1.8h-12.01q.17 2.49 1.47 4.07 1.29 1.58 3.46 1.58 1.43 0 2.57-.31 1.14-.3 1.58-.56.44-.25 1.23-.76l1.25 1.9q-2.58 2.28-6.46 2.28-3.87 0-5.93-2.5t-2.06-6.34 2.06-6.34 5.61-2.5 5.39 2.14 1.84 5.54m-2.89-.61q-.21-2.07-1.24-3.3-1.04-1.22-2.96-1.22t-3.15 1.24q-1.22 1.24-1.63 3.28Zm10.09-2.75v10.81h2.96v2.21h-8.46v-2.21h2.61v-12.58h-2.61v-2.21h4.86l.41 1.8q1.15-.65 1.87-1 .71-.36 2.05-.75 1.35-.39 2.6-.39l1.91.51-.78 2.79-1.53-.41q-2.86 0-5.89 1.43m17.99-12.74q1.33 0 3.23.27v4.55h-2.38v-2.24l-.85-.03q-2.18 0-2.91 1.08-.73 1.09-.73 3.57v1.57h5.41v2.21h-5.41v12.58h2.96v2.21h-8.5v-2.21h2.65v-12.58h-2.62v-1.87l2.62-.34v-1.57q0-3.57 1.45-5.38 1.44-1.82 5.08-1.82m18.36 16.1v1.8h-12q.17 2.49 1.46 4.07t3.47 1.58q1.43 0 2.56-.31 1.14-.3 1.59-.56.44-.25 1.22-.76l1.26 1.9q-2.59 2.28-6.46 2.28-3.88 0-5.94-2.5-2.05-2.5-2.05-6.34t2.05-6.34q2.06-2.5 5.61-2.5 3.56 0 5.39 2.14 1.84 2.14 1.84 5.54m-2.89-.61q-.2-2.07-1.24-3.3-1.04-1.22-2.96-1.22t-3.14 1.24q-1.23 1.24-1.64 3.28Zm10.1-2.75v10.81h2.96v2.21h-8.47v-2.21h2.62v-12.58h-2.62v-2.21h4.86l.41 1.8q1.16-.65 1.87-1 .71-.36 2.06-.75 1.34-.39 2.6-.39l1.9.51-.78 2.79-1.53-.41q-2.86 0-5.88 1.43m9.31 4.52q0-3.84 2.06-6.34t5.49-2.5q3.44 0 5.75 1.39v4.05h-2.38v-2.28q-1.46-.61-3.1-.61-2.34 0-3.63 1.77-1.3 1.76-1.3 4.52 0 2.75 1.3 4.52 1.29 1.77 3.63 1.77 1.33 0 2.42-.32 1.09-.33 1.46-.55t1.16-.76l1.25 1.9q-2.41 2.28-6.2 2.28t-5.85-2.5-2.06-6.34m18.26-6.29h-2.96v-1.87l2.62-.34h.34q1.09-2.55 1.46-4.49h1.43v4.49h5.07v2.21h-5.07v10.44q0 1.15.39 1.66t1.35.51q.95 0 2.55-.64l1.12 1.93q-1.94 1.23-4.15 1.23t-3.18-1.16q-.97-1.15-.97-2.99Zm39.42 14.8h-8.47v-2.21h2.62v-8.6q0-1.98-.51-2.98t-2.33-1-5.01 1.7v10.88h2.61v2.21h-8.12v-2.21h2.62v-12.58h-2.62v-2.21h4.86l.34 1.53q3.43-1.87 6.17-1.87t3.93 1.97q3.5-1.97 6.25-1.97 2.76 0 3.86 1.73 1.11 1.74 1.11 4.8v8.77h2.79v1.43q-1.26.78-2.91.78t-2.21-.56-.56-1.82v-8.6q0-1.98-.51-2.98t-2.26-1-4.81 1.53q.2 1.12.2 2.45v8.6h2.96Zm13.76-2.17q-2.14-2.5-2.14-6.34t2.14-6.34 6.02-2.5q3.87 0 6.01 2.5 2.15 2.5 2.15 6.34t-2.15 6.34q-2.14 2.5-6.01 2.5-3.88 0-6.02-2.5m2.14-10.86q-1.39 1.76-1.39 4.52 0 2.75 1.39 4.52t3.88 1.77q2.48 0 3.87-1.77 1.4-1.77 1.4-4.52 0-2.76-1.4-4.52-1.39-1.77-3.87-1.77-2.49 0-3.88 1.77m33.12 13.03h-8.47v-2.21h2.62v-8.6q0-1.98-.51-2.98t-2.33-1-5.02 1.7v10.88h2.62v2.21h-8.12v-2.21h2.61v-12.58h-2.61v-2.21h4.86l.34 1.53q3.43-1.87 6.17-1.87t3.93 1.97q3.5-1.97 6.25-1.97 2.76 0 3.86 1.73 1.11 1.74 1.11 4.8v8.77h2.78v1.43q-1.25.78-2.9.78t-2.21-.56-.56-1.82v-8.6q0-1.98-.51-2.98t-2.27-1q-1.75 0-4.81 1.53.21 1.12.21 2.45v8.6h2.96Zm26.52-9.67v1.8h-12.01q.17 2.49 1.47 4.07 1.29 1.58 3.46 1.58 1.43 0 2.57-.31 1.14-.3 1.58-.56.44-.25 1.23-.76l1.25 1.9q-2.58 2.28-6.46 2.28-3.87 0-5.93-2.5t-2.06-6.34 2.06-6.34 5.61-2.5 5.39 2.14 1.84 5.54m-2.89-.61q-.21-2.07-1.25-3.3-1.03-1.22-2.95-1.22t-3.15 1.24q-1.22 1.24-1.63 3.28Zm10.09-2.47v10.54h2.96v2.21h-8.46v-2.21h2.61v-12.58h-2.61v-2.21h4.86l.41 1.8q1.15-.65 1.87-1 .71-.36 2.05-.75 1.35-.39 2.6-.39 2.93 0 4.03 1.73 1.11 1.74 1.11 4.8v8.77h2.79v1.43q-1.26.78-2.91.78t-2.21-.56-.56-1.82v-8.6q0-1.98-.51-2.98t-2.35-1q-1.83 0-5.68 2.04m18.19-2.05h-2.95v-1.87l2.61-.34h.34q1.09-2.55 1.47-4.49h1.42v4.49h5.07v2.21h-5.07v10.44q0 1.15.39 1.66.4.51 1.35.51t2.55-.64l1.12 1.93q-1.94 1.23-4.15 1.23t-3.18-1.16q-.97-1.15-.97-2.99Z"/><rect width="357.75" height="38.42" x="441.715" y="433.094" fill="none" rx="0" ry="0" transform="translate(467.68 426.29)"/><g stroke="#2a2a2a" stroke-width="5" transform="translate(438.43 461.6)"><path d="m461.775 461.684 317.64-18.76"/>undefined
        undefined</g><g stroke="#2a2a2a" stroke-width="5" transform="translate(439.65 470.32)"><path d="m461.775 461.684 317.64-18.76"/>undefined
        undefined</g></g><path fill="transparent" stroke="transparent" stroke-width="3.226" d="M250 248.387h1500v1003.226H250z"/></g></svg>