<svg xmlns="http://www.w3.org/2000/svg" xml:space="preserve" width="2000" height="1500" data-id="lg_iOmk2hHfkoHfghM1XG" data-version="1"><path fill="#4d0ba4" stroke="transparent" d="M0 0h2000v1500H0z"/><g data-padding="20"><g transform="translate(-407.966 -177.307)scale(2.49288)"><linearGradient id="a" x1="0" x2="1" y1="0" y2="0" gradientUnits="objectBoundingBox"><stop offset="0%" stop-color="#ffa62e"/><stop offset="100%" stop-color="#f71b3d"/></linearGradient><path fill="url(#a)" stroke="transparent" d="M867.767 808.926q-9.97-12.4-9.97-32.22 0-19.81 10.72-32.46t29.16-12.65q12.72 0 20.51 6.29t7.79 16.76q0 7.48-3.99 12.72-3.99 5.23-12.34 5.23t-12.09-5.55q-3.74-5.54-3.74-13.64h9.97q0 9.84 5.86 9.84 3.11 0 4.73-2.43t1.62-6.17q0-6.73-4.79-10.22-4.8-3.49-13.53-3.49-12.96 0-20.81 10.04-7.85 10.03-7.85 25.23 0 15.21 7.98 25.49 7.97 10.28 18.32 10.28 10.34 0 15.76-5.73t5.42-13.96v-1.49h-20.44v-9.35h31.04v38.63h-7.73l-2.37-9.09q-2.24 2.74-3.86 4.36t-6.61 3.8q-4.98 2.18-11.34 2.18-17.45 0-27.42-12.4" transform="translate(-460 -399.8)"/><path fill="url(#a)" stroke="transparent" d="M957.877 821.326q-8.6 0-13.46-4.92-4.86-4.93-4.86-13.21 0-8.29 6.48-13.9t19.19-5.61h13.59v-6.35q0-11.47-10.97-11.47-9.22 0-16.95 2.24v8.35h-8.72v-14.83q5.61-2.37 13.27-3.74 7.67-1.37 12.78-1.37 9.97 0 15.57 5.67 5.61 5.67 5.61 15.15v35.27h10.22v5.23q-4.61 2.87-10.59 2.87t-8.1-2q-2.12-1.99-2.12-6.73-9.35 9.35-20.94 9.35m1.12-9.35q10.72 0 19.82-12.09v-7.97h-13.71q-7.6 0-11.28 2.99t-3.68 7.54 2.25 7.04q2.24 2.49 6.6 2.49" transform="translate(-459.99 -399.8)"/><path fill="url(#a)" stroke="transparent" d="M1022.317 795.156v16.82h9.59v8.1h-29.78v-8.1h9.59v-77.27h-9.59v-8.1h20.19v58.45l7.6-2.74 14.7-16.45h-4.61v-8.1h23.43v8.1h-5.36l-19.69 21.44 19.82 25.3h9.47v5.23q-2.74 1.62-4.86 2.24-2.12.63-6.73.63t-8.23-4.74l-17.94-23.55Z" transform="translate(-460 -399.8)"/><path fill="url(#a)" stroke="transparent" d="M1120.397 765.866h-9.6v-8.1h20.19v54.84h10.22v5.23q-4.61 2.87-12.27 2.87-7.67 0-8.42-6.61-13.08 7.36-23.49 7.36t-14.46-6.36-4.05-17.57v-31.66h-9.59v-8.1h20.19v39.76q0 7.22 1.87 10.9t8.6 3.68 20.81-7.48Z" transform="translate(-460 -399.79)"/><path fill="url(#a)" stroke="transparent" d="M1151.427 765.866h-7.72v-8.1h23.55v8.1h-4.49l13.96 42.25 13.09-42.25h-5.73v-8.1h22.43v8.1h-5.86l-18.07 54.21q-4.74 13.84-10.47 21-5.73 7.17-15.95 7.17-5.86 0-12.46-2.24l2.99-8.73q5.11 1.5 8.72 1.5 10.72 0 16.45-16.95Z" transform="translate(-459.99 -399.8)"/><path fill="url(#a)" stroke="transparent" d="M1229.827 821.326q-8.6 0-13.46-4.92-4.86-4.93-4.86-13.21 0-8.29 6.48-13.9t19.19-5.61h13.58v-6.35q0-11.47-10.96-11.47-9.23 0-16.95 2.24v8.35h-8.73v-14.83q5.61-2.37 13.28-3.74 7.66-1.37 12.77-1.37 9.97 0 15.58 5.67t5.61 15.15v35.27h10.22v5.23q-4.61 2.87-10.6 2.87-5.98 0-8.1-2-2.12-1.99-2.12-6.73-9.34 9.35-20.93 9.35m1.12-9.35q10.72 0 19.81-12.09v-7.97h-13.71q-7.6 0-11.27 2.99-3.68 2.99-3.68 7.54t2.24 7.04q2.25 2.49 6.61 2.49" transform="translate(-460 -399.8)"/><rect width="422.25" height="140.83" x="392.317" y="311.916" fill="none" rx="0" ry="0"/></g><g paint-order="stroke"><g transform="translate(-1084.833 -274.23)scale(4.68662)"><linearGradient id="b" x1="0" x2="1" y1="0" y2="0" gradientUnits="objectBoundingBox"><stop offset="0%" stop-color="#fff72e"/><stop offset="100%" stop-color="#deae29"/></linearGradient><path fill="url(#b)" d="M365.783 229.47c.8 0 1.5-.7 1.5-1.5v-8.5c0-.8-.7-1.5-1.5-1.5s-1.5.7-1.5 1.5v8.5c0 .9.7 1.5 1.5 1.5m27.8 28.9-7.9-3.2c-.8-.3-1.6.1-2 .8-.3.8.1 1.6.8 2l7.9 3.2c.2.1.4.1.6.1.6 0 1.2-.4 1.4-.9.3-.8 0-1.7-.8-2m1.6-11.1h-8.5c-.8 0-1.5.7-1.5 1.5s.7 1.5 1.5 1.5h8.5c.8 0 1.5-.7 1.5-1.5s-.7-1.5-1.5-1.5m-10.2-5c.2 0 .4 0 .6-.1l7.8-3.3c.8-.3 1.1-1.2.8-2s-1.2-1.1-2-.8l-7.8 3.3c-.8.3-1.1 1.2-.8 2 .3.5.8.9 1.4.9m-7.3-21.9c-.8-.3-1.6 0-2 .8l-3.3 7.8c-.3.8 0 1.6.8 2 .2.1.4.1.6.1.6 0 1.1-.3 1.4-.9l3.3-7.8c.3-.8 0-1.7-.8-2m9.9 6.7c-.6-.6-1.5-.6-2.1 0l-6 6a1.45 1.45 0 0 0 1.1 2.5c.4 0 .8-.1 1.1-.4l6-6c.5-.6.5-1.6-.1-2.1m-41.3 28.1-7.9 3.2c-.8.3-1.1 1.2-.8 2 .2.6.8.9 1.4.9.2 0 .4 0 .6-.1l7.9-3.2c.8-.3 1.1-1.2.8-2-.4-.7-1.2-1.1-2-.8m.5-6.4c0-.8-.7-1.5-1.5-1.5h-8.5c-.8 0-1.5.7-1.5 1.5s.7 1.5 1.5 1.5h8.5c.9 0 1.5-.6 1.5-1.5m.8-9.4-7.8-3.3c-.8-.3-1.6 0-2 .8-.3.8 0 1.6.8 2l7.8 3.3c.2.1.4.1.6.1.6 0 1.1-.3 1.4-.9.3-.8-.1-1.7-.8-2m10.6-8.3c.2 0 .4 0 .6-.1.8-.3 1.1-1.2.8-2l-3.3-7.8c-.3-.8-1.2-1.1-2-.8s-1.1 1.2-.8 2l3.3 7.8c.2.6.8.9 1.4.9m-11.7-4c-.6-.6-1.5-.6-2.1 0s-.6 1.5 0 2.1l6 6c.3.3.7.4 1.1.4a1.45 1.45 0 0 0 1.1-2.5Zm20.6 9.7c-.6-.8-1.9-.8-2.5 0-.9 1.2-8.5 12.2-8.5 17.1 0 3.1 1.5 7.1 3.6 9.8v6.1c0 .8.7 1.5 1.5 1.5h9.4c.8 0 1.5-.7 1.5-1.5v-6.1c2.1-2.8 3.6-6.7 3.6-9.8-.1-4.9-7.8-15.9-8.6-17.1m-1.3 3.5c3 4.5 6.8 11 6.8 13.6 0 2.4-1.1 5.5-2.8 7.8h-8c-1.6-2.2-2.8-5.4-2.8-7.8.1-2.6 3.8-9.1 6.8-13.6m3.2 28h-6.4v-3.7h6.4Z" transform="translate(-45 -41.25)"/></g><g transform="translate(-1095.852 -246.584)scale(4.68662)"><linearGradient id="c" x1="0" x2="1" y1="0" y2="0" gradientUnits="objectBoundingBox"><stop offset="0%" stop-color="#fff72e"/><stop offset="100%" stop-color="#deae29"/></linearGradient><path fill="url(#c)" d="M363.083 254.57c0-3.4 3-7.4 3-7.5.3-.4.3-1.1-.2-1.4-.4-.3-1.1-.3-1.4.2-.1.2-3.5 4.6-3.5 8.7 0 .6.4 1 1 1s1.1-.5 1.1-1" transform="translate(-42.65 -47.15)"/></g></g><g paint-order="stroke"><g transform="translate(-1070.624 -16.167)scale(-4.68662)"><linearGradient id="d" x1="0" x2="1" y1="0" y2="0" gradientUnits="objectBoundingBox"><stop offset="0%" stop-color="#fff72e"/><stop offset="100%" stop-color="#deae29"/></linearGradient><path fill="url(#d)" d="M-276.183-177.27c.8 0 1.5-.7 1.5-1.5v-8.5c0-.8-.7-1.5-1.5-1.5s-1.5.7-1.5 1.5v8.5c0 .9.7 1.5 1.5 1.5m27.8 28.9-7.9-3.2c-.8-.3-1.6.1-2 .8-.3.8.1 1.6.8 2l7.9 3.2c.2.1.4.1.6.1.6 0 1.2-.4 1.4-.9.3-.8 0-1.7-.8-2m1.6-11.1h-8.5c-.8 0-1.5.7-1.5 1.5s.7 1.5 1.5 1.5h8.5c.8 0 1.5-.7 1.5-1.5s-.7-1.5-1.5-1.5m-10.2-5c.2 0 .4 0 .6-.1l7.8-3.3c.8-.3 1.1-1.2.8-2s-1.2-1.1-2-.8l-7.8 3.3c-.8.3-1.1 1.2-.8 2 .3.5.8.9 1.4.9m-7.3-21.9c-.8-.3-1.6 0-2 .8l-3.3 7.8c-.3.8 0 1.6.8 2 .2.1.4.1.6.1.6 0 1.1-.3 1.4-.9l3.3-7.8c.3-.8 0-1.7-.8-2m9.9 6.7c-.6-.6-1.5-.6-2.1 0l-6 6a1.45 1.45 0 0 0 1.1 2.5c.4 0 .8-.1 1.1-.4l6-6c.5-.6.5-1.6-.1-2.1m-41.3 28.1-7.9 3.2c-.8.3-1.1 1.2-.8 2 .2.6.8.9 1.4.9.2 0 .4 0 .6-.1l7.9-3.2c.8-.3 1.1-1.2.8-2-.4-.7-1.2-1.1-2-.8m.5-6.4c0-.8-.7-1.5-1.5-1.5h-8.5c-.8 0-1.5.7-1.5 1.5s.7 1.5 1.5 1.5h8.5c.9 0 1.5-.6 1.5-1.5m.8-9.4-7.8-3.3c-.8-.3-1.6 0-2 .8-.3.8 0 1.6.8 2l7.8 3.3c.2.1.4.1.6.1.6 0 1.1-.3 1.4-.9.3-.8-.1-1.7-.8-2m10.6-8.3c.2 0 .4 0 .6-.1.8-.3 1.1-1.2.8-2l-3.3-7.8c-.3-.8-1.2-1.1-2-.8s-1.1 1.2-.8 2l3.3 7.8c.2.6.8.9 1.4.9m-11.7-4c-.6-.6-1.5-.6-2.1 0s-.6 1.5 0 2.1l6 6c.3.3.7.4 1.1.4a1.45 1.45 0 0 0 1.1-2.5Zm20.6 9.7c-.6-.8-1.9-.8-2.5 0-.9 1.2-8.5 12.2-8.5 17.1 0 3.1 1.5 7.1 3.6 9.8v6.1c0 .8.7 1.5 1.5 1.5h9.4c.8 0 1.5-.7 1.5-1.5v-6.1c2.1-2.8 3.6-6.7 3.6-9.8-.1-4.9-7.8-15.9-8.6-17.1m-1.3 3.5c3 4.5 6.8 11 6.8 13.6 0 2.4-1.1 5.5-2.8 7.8h-8c-1.6-2.2-2.8-5.4-2.8-7.8.1-2.6 3.8-9.1 6.8-13.6m3.2 28h-6.4v-3.7h6.4Z" transform="translate(-45 -41.25)"/></g><g transform="translate(-1059.356 -43.738)scale(-4.68662)"><linearGradient id="e" x1="0" x2="1" y1="0" y2="0" gradientUnits="objectBoundingBox"><stop offset="0%" stop-color="#fff72e"/><stop offset="100%" stop-color="#deae29"/></linearGradient><path fill="url(#e)" d="M-278.883-152.17c0-3.4 3-7.4 3-7.5.3-.4.3-1.1-.2-1.4-.4-.3-1.1-.3-1.4.2-.1.2-3.5 4.6-3.5 8.7 0 .6.4 1 1 1s1.1-.5 1.1-1" transform="translate(-42.65 -47.15)"/></g></g><g transform="translate(119.354 -414.255)scale(2.51781)"><linearGradient id="f" x1="0" x2="1" y1="0" y2="0" gradientUnits="objectBoundingBox"><stop offset="0%" stop-color="#ffa62e"/><stop offset="100%" stop-color="#f71b3d"/></linearGradient><path fill="url(#f)" stroke="#ffe300" stroke-width="8.5" d="m647.472 403.06 7.96-14.51 1.79 16.45 12.91-10.36-4.64 15.89 15.89-4.64-10.36 12.91 16.45 1.79-14.51 7.96 14.51 7.96-16.45 1.79 10.36 12.91-15.89-4.64 4.64 15.89-12.91-10.36-1.79 16.45-7.96-14.51-7.96 14.51-1.79-16.45-12.91 10.36 4.64-15.89-15.89 4.64 10.36-12.91-16.45-1.79 14.51-7.96-14.51-7.96 16.45-1.79-10.36-12.91 15.89 4.64-4.64-15.89 12.91 10.36 1.79-16.45Z" paint-order="stroke" transform="translate(-50 -50)"/></g><path fill="transparent" stroke="transparent" stroke-width="2.582" d="M250 427.28h1500v645.44H250z"/></g></svg>